<?xml version="1.0" standalone="no"?><svg xmlns="http://www.w3.org/2000/svg" viewBox="0 0 1440 320"><path fill="#3B86FF" fill-opacity="1" d="M0,128L20,133.3C40,139,80,149,120,165.3C160,181,200,203,240,208C280,213,320,203,360,197.3C400,192,440,192,480,170.7C520,149,560,107,600,90.7C640,75,680,85,720,112C760,139,800,181,840,170.7C880,160,920,96,960,69.3C1000,43,1040,53,1080,96C1120,139,1160,213,1200,229.3C1240,245,1280,203,1320,165.3C1360,128,1400,96,1420,80L1440,64L1440,0L1420,0C1400,0,1360,0,1320,0C1280,0,1240,0,1200,0C1160,0,1120,0,1080,0C1040,0,1000,0,960,0C920,0,880,0,840,0C800,0,760,0,720,0C680,0,640,0,600,0C560,0,520,0,480,0C440,0,400,0,360,0C320,0,280,0,240,0C200,0,160,0,120,0C80,0,40,0,20,0L0,0Z"></path></svg>